<svg viewBox="0 0 142 157.88457268119893" xmlns="http://www.w3.org/2000/svg">
<defs>
<path d="M80.625,78.29277 A1.5,1.5,0,0,1,80.625,79.591805 L76.375,86.95302 A1.5,1.5,0,0,1,75.25,87.60254 L66.75,87.60254 A1.5,1.5,0,0,1,65.625,86.95302 L61.375,79.591805 A1.5,1.5,0,0,1,61.375,78.29277 L65.625,70.93155 A1.5,1.5,0,0,1,66.75,70.282036 L75.25,70.282036 A1.5,1.5,0,0,1,76.375,70.93155 z" fill="none" id="hexagon" stroke="black" stroke-width="1"/>
<clipPath id="hexagon-clip">
<path d="M80.625,78.29277 A1.5,1.5,0,0,1,80.625,79.591805 L76.375,86.95302 A1.5,1.5,0,0,1,75.25,87.60254 L66.75,87.60254 A1.5,1.5,0,0,1,65.625,86.95302 L61.375,79.591805 A1.5,1.5,0,0,1,61.375,78.29277 L65.625,70.93155 A1.5,1.5,0,0,1,66.75,70.282036 L75.25,70.282036 A1.5,1.5,0,0,1,76.375,70.93155 z" fill="black" id="filled-hexagon" stroke="none" stroke-width="1"/>
</clipPath>
<circle clip-path="url(#hexagon-clip)" cx="71" cy="78.94228634059947" id="level0-circle">
<animate attributeName="r" dur="12s" keyTimes="0;0;0.08333333333333333;1" repeatCount="indefinite" values="0;0;10;10"/>
<animate attributeName="fill" dur="12s" keyTimes="0;0;0.08333333333333333;0.16666666666666666;0.9166666666666666;1" repeatCount="indefinite" values="red;red;red;purple;purple;white"/>
</circle>
<circle clip-path="url(#hexagon-clip)" cx="71" cy="78.94228634059947" id="level1-circle">
<animate attributeName="r" dur="12s" keyTimes="0;0.16666666666666666;0.25;1" repeatCount="indefinite" values="0;0;10;10"/>
<animate attributeName="fill" dur="12s" keyTimes="0;0.16666666666666666;0.25;0.3333333333333333;0.9166666666666666;1" repeatCount="indefinite" values="red;red;red;purple;purple;white"/>
</circle>
<circle clip-path="url(#hexagon-clip)" cx="71" cy="78.94228634059947" id="level2-circle">
<animate attributeName="r" dur="12s" keyTimes="0;0.3333333333333333;0.41666666666666663;1" repeatCount="indefinite" values="0;0;10;10"/>
<animate attributeName="fill" dur="12s" keyTimes="0;0.3333333333333333;0.41666666666666663;0.49999999999999994;0.9166666666666666;1" repeatCount="indefinite" values="red;red;red;purple;purple;white"/>
</circle>
<circle clip-path="url(#hexagon-clip)" cx="71" cy="78.94228634059947" id="level3-circle">
<animate attributeName="r" dur="12s" keyTimes="0;0.5;0.5833333333333334;1" repeatCount="indefinite" values="0;0;10;10"/>
<animate attributeName="fill" dur="12s" keyTimes="0;0.5;0.5833333333333334;0.6666666666666667;0.9166666666666666;1" repeatCount="indefinite" values="red;red;red;purple;purple;white"/>
</circle>
<circle clip-path="url(#hexagon-clip)" cx="71" cy="78.94228634059947" id="level4-circle">
<animate attributeName="r" dur="12s" keyTimes="0;0.6666666666666666;0.75;1" repeatCount="indefinite" values="0;0;10;10"/>
<animate attributeName="fill" dur="12s" keyTimes="0;0.6666666666666666;0.75;0.8333333333333334;0.9166666666666666;1" repeatCount="indefinite" values="red;red;red;purple;purple;white"/>
</circle>
</defs>
<rect fill="white" height="157.88457268119893" width="142"/>
<use href="#level0-circle"/>
<use href="#hexagon"/>
<use href="#level1-circle" x="15" y="8.660254037844384"/>
<use href="#hexagon" x="15" y="8.660254037844384"/>
<use href="#level1-circle" x="0.0000000000000010605752387249068" y="17.32050807568877"/>
<use href="#hexagon" x="0.0000000000000010605752387249068" y="17.32050807568877"/>
<use href="#level1-circle" x="-14.999999999999996" y="8.66025403784439"/>
<use href="#hexagon" x="-14.999999999999996" y="8.66025403784439"/>
<use href="#level1-circle" x="-15.000000000000002" y="-8.66025403784438"/>
<use href="#hexagon" x="-15.000000000000002" y="-8.66025403784438"/>
<use href="#level1-circle" x="-0.00000000000000318172571617472" y="-17.32050807568877"/>
<use href="#hexagon" x="-0.00000000000000318172571617472" y="-17.32050807568877"/>
<use href="#level1-circle" x="14.999999999999993" y="-8.660254037844393"/>
<use href="#hexagon" x="14.999999999999993" y="-8.660254037844393"/>
<use href="#level2-circle" x="30" y="17.320508075688767"/>
<use href="#hexagon" x="30" y="17.320508075688767"/>
<use href="#level2-circle" x="15.000000000000004" y="25.98076211353316"/>
<use href="#hexagon" x="15.000000000000004" y="25.98076211353316"/>
<use href="#level2-circle" x="0.0000000000000021211504774498135" y="34.64101615137754"/>
<use href="#hexagon" x="0.0000000000000021211504774498135" y="34.64101615137754"/>
<use href="#level2-circle" x="-15" y="25.98076211353316"/>
<use href="#hexagon" x="-15" y="25.98076211353316"/>
<use href="#level2-circle" x="-29.999999999999993" y="17.32050807568878"/>
<use href="#hexagon" x="-29.999999999999993" y="17.32050807568878"/>
<use href="#level2-circle" x="-29.999999999999996" y="0.000000000000010658141036401503"/>
<use href="#hexagon" x="-29.999999999999996" y="0.000000000000010658141036401503"/>
<use href="#level2-circle" x="-30.000000000000004" y="-17.32050807568876"/>
<use href="#hexagon" x="-30.000000000000004" y="-17.32050807568876"/>
<use href="#level2-circle" x="-15.00000000000001" y="-25.980762113533153"/>
<use href="#hexagon" x="-15.00000000000001" y="-25.980762113533153"/>
<use href="#level2-circle" x="-0.00000000000000636345143234944" y="-34.64101615137754"/>
<use href="#hexagon" x="-0.00000000000000636345143234944" y="-34.64101615137754"/>
<use href="#level2-circle" x="14.999999999999998" y="-25.980762113533167"/>
<use href="#hexagon" x="14.999999999999998" y="-25.980762113533167"/>
<use href="#level2-circle" x="29.999999999999986" y="-17.320508075688785"/>
<use href="#hexagon" x="29.999999999999986" y="-17.320508075688785"/>
<use href="#level2-circle" x="29.99999999999999" y="-0.000000000000014210854715202004"/>
<use href="#hexagon" x="29.99999999999999" y="-0.000000000000014210854715202004"/>
<use href="#level3-circle" x="45" y="25.980762113533153"/>
<use href="#hexagon" x="45" y="25.980762113533153"/>
<use href="#level3-circle" x="30.000000000000004" y="34.64101615137754"/>
<use href="#hexagon" x="30.000000000000004" y="34.64101615137754"/>
<use href="#level3-circle" x="15.000000000000007" y="43.30127018922194"/>
<use href="#hexagon" x="15.000000000000007" y="43.30127018922194"/>
<use href="#level3-circle" x="0.0000000000000031817257161747205" y="51.96152422706631"/>
<use href="#hexagon" x="0.0000000000000031817257161747205" y="51.96152422706631"/>
<use href="#level3-circle" x="-14.999999999999998" y="43.30127018922193"/>
<use href="#hexagon" x="-14.999999999999998" y="43.30127018922193"/>
<use href="#level3-circle" x="-30" y="34.641016151377556"/>
<use href="#hexagon" x="-30" y="34.641016151377556"/>
<use href="#level3-circle" x="-44.999999999999986" y="25.980762113533174"/>
<use href="#hexagon" x="-44.999999999999986" y="25.980762113533174"/>
<use href="#level3-circle" x="-44.999999999999986" y="8.660254037844403"/>
<use href="#hexagon" x="-44.999999999999986" y="8.660254037844403"/>
<use href="#level3-circle" x="-44.99999999999999" y="-8.660254037844368"/>
<use href="#hexagon" x="-44.99999999999999" y="-8.660254037844368"/>
<use href="#level3-circle" x="-45.00000000000001" y="-25.980762113533142"/>
<use href="#hexagon" x="-45.00000000000001" y="-25.980762113533142"/>
<use href="#level3-circle" x="-30.000000000000014" y="-34.641016151377535"/>
<use href="#hexagon" x="-30.000000000000014" y="-34.641016151377535"/>
<use href="#level3-circle" x="-15.000000000000021" y="-43.301270189221924"/>
<use href="#hexagon" x="-15.000000000000021" y="-43.301270189221924"/>
<use href="#level3-circle" x="-0.000000000000009545177148524161" y="-51.96152422706631"/>
<use href="#hexagon" x="-0.000000000000009545177148524161" y="-51.96152422706631"/>
<use href="#level3-circle" x="14.999999999999996" y="-43.30127018922194"/>
<use href="#hexagon" x="14.999999999999996" y="-43.30127018922194"/>
<use href="#level3-circle" x="30" y="-34.64101615137757"/>
<use href="#hexagon" x="30" y="-34.64101615137757"/>
<use href="#level3-circle" x="44.99999999999998" y="-25.980762113533178"/>
<use href="#hexagon" x="44.99999999999998" y="-25.980762113533178"/>
<use href="#level3-circle" x="44.999999999999986" y="-8.660254037844407"/>
<use href="#hexagon" x="44.999999999999986" y="-8.660254037844407"/>
<use href="#level3-circle" x="44.999999999999986" y="8.660254037844364"/>
<use href="#hexagon" x="44.999999999999986" y="8.660254037844364"/>
<use href="#level4-circle" x="60" y="34.641016151377535"/>
<use href="#hexagon" x="60" y="34.641016151377535"/>
<use href="#level4-circle" x="45" y="43.301270189221924"/>
<use href="#hexagon" x="45" y="43.301270189221924"/>
<use href="#level4-circle" x="30.000000000000007" y="51.96152422706632"/>
<use href="#hexagon" x="30.000000000000007" y="51.96152422706632"/>
<use href="#level4-circle" x="15.000000000000014" y="60.62177826491071"/>
<use href="#hexagon" x="15.000000000000014" y="60.62177826491071"/>
<use href="#level4-circle" x="0.000000000000004242300954899627" y="69.28203230275508"/>
<use href="#hexagon" x="0.000000000000004242300954899627" y="69.28203230275508"/>
<use href="#level4-circle" x="-14.999999999999998" y="60.6217782649107"/>
<use href="#hexagon" x="-14.999999999999998" y="60.6217782649107"/>
<use href="#level4-circle" x="-30" y="51.96152422706632"/>
<use href="#hexagon" x="-30" y="51.96152422706632"/>
<use href="#level4-circle" x="-45" y="43.30127018922194"/>
<use href="#hexagon" x="-45" y="43.30127018922194"/>
<use href="#level4-circle" x="-59.999999999999986" y="34.64101615137756"/>
<use href="#hexagon" x="-59.999999999999986" y="34.64101615137756"/>
<use href="#level4-circle" x="-59.999999999999986" y="17.320508075688792"/>
<use href="#hexagon" x="-59.999999999999986" y="17.320508075688792"/>
<use href="#level4-circle" x="-59.99999999999999" y="0.000000000000021316282072803006"/>
<use href="#hexagon" x="-59.99999999999999" y="0.000000000000021316282072803006"/>
<use href="#level4-circle" x="-59.99999999999999" y="-17.32050807568875"/>
<use href="#hexagon" x="-59.99999999999999" y="-17.32050807568875"/>
<use href="#level4-circle" x="-60.00000000000001" y="-34.64101615137752"/>
<use href="#hexagon" x="-60.00000000000001" y="-34.64101615137752"/>
<use href="#level4-circle" x="-45.000000000000014" y="-43.30127018922191"/>
<use href="#hexagon" x="-45.000000000000014" y="-43.30127018922191"/>
<use href="#level4-circle" x="-30.00000000000002" y="-51.961524227066306"/>
<use href="#hexagon" x="-30.00000000000002" y="-51.961524227066306"/>
<use href="#level4-circle" x="-15.000000000000028" y="-60.6217782649107"/>
<use href="#hexagon" x="-15.000000000000028" y="-60.6217782649107"/>
<use href="#level4-circle" x="-0.00000000000001272690286469888" y="-69.28203230275508"/>
<use href="#hexagon" x="-0.00000000000001272690286469888" y="-69.28203230275508"/>
<use href="#level4-circle" x="14.999999999999993" y="-60.62177826491071"/>
<use href="#hexagon" x="14.999999999999993" y="-60.62177826491071"/>
<use href="#level4-circle" x="29.999999999999996" y="-51.961524227066334"/>
<use href="#hexagon" x="29.999999999999996" y="-51.961524227066334"/>
<use href="#level4-circle" x="45" y="-43.30127018922197"/>
<use href="#hexagon" x="45" y="-43.30127018922197"/>
<use href="#level4-circle" x="59.99999999999997" y="-34.64101615137757"/>
<use href="#hexagon" x="59.99999999999997" y="-34.64101615137757"/>
<use href="#level4-circle" x="59.99999999999998" y="-17.3205080756888"/>
<use href="#hexagon" x="59.99999999999998" y="-17.3205080756888"/>
<use href="#level4-circle" x="59.99999999999998" y="-0.00000000000002842170943040401"/>
<use href="#hexagon" x="59.99999999999998" y="-0.00000000000002842170943040401"/>
<use href="#level4-circle" x="59.999999999999986" y="17.320508075688743"/>
<use href="#hexagon" x="59.999999999999986" y="17.320508075688743"/>
</svg>